<svg height="512pt" viewBox="0 0 512 512" width="512pt" xmlns="http://www.w3.org/2000/svg"><path d="m60 60h392v391h-392zm0 0" fill="#e0f4ff"/><path d="m256 60h196v391h-196zm0 0" fill="#bbdcff"/><path d="m75 301c-24.902344 0-45 20.097656-45 45s20.097656 45 45 45 45-20.097656 45-45-20.097656-45-45-45zm0 0" fill="#38d3f8"/><path d="m75 391c-41.398438 0-75 33.601562-75 75v46h150v-46c0-41.398438-33.601562-75-75-75zm0 0" fill="#25d9f8"/><path d="m75 391v-90c24.902344 0 45 20.097656 45 45s-20.097656 45-45 45zm0 0" fill="#00c0f1"/><path d="m150 466v46h-75v-121c41.398438 0 75 33.601562 75 75zm0 0" fill="#00c0f1"/><path d="m256 150c-24.902344 0-45 21.097656-45 46s20.097656 45 45 45 46-20.097656 46-45-21.097656-46-46-46zm0 0" fill="#38d3f8"/><path d="m256 241c-41.398438 0-76 33.601562-76 75v45h152v-45c0-41.398438-34.601562-75-76-75zm0 0" fill="#25d9f8"/><path d="m256 241v-91c24.902344 0 46 21.097656 46 46s-21.097656 45-46 45zm0 0" fill="#00c0f1"/><path d="m332 316v45h-76v-120c41.398438 0 76 33.601562 76 75zm0 0" fill="#00c0f1"/><path d="m437 0c-24.902344 0-45 20.097656-45 45s20.097656 45 45 45 45-20.097656 45-45-20.097656-45-45-45zm0 0" fill="#38d3f8"/><path d="m437 90c-41.398438 0-75 33.601562-75 75v46h150v-46c0-41.398438-33.601562-75-75-75zm0 0" fill="#25d9f8"/><g fill="#00c0f1"><path d="m437 90v-90c24.902344 0 45 20.097656 45 45s-20.097656 45-45 45zm0 0"/><path d="m512 165v46h-75v-121c41.398438 0 75 33.601562 75 75zm0 0"/></g></svg>